<?xml version="1.0" encoding="UTF-8" standalone="no"?>
<!DOCTYPE svg PUBLIC "-//W3C//DTD SVG 1.1//EN"
"http://www.w3.org/Graphics/SVG/1.1/DTD/svg11.dtd">


<!-- Page 1 -->
<svg x="0" y="0" width="1466" height="824" viewBox="0 0 1466 824" version="1.1" xmlns="http://www.w3.org/2000/svg" xmlns:xlink="http://www.w3.org/1999/xlink"
style="display: block;margin-left: auto;margin-right: auto;">
<defs>
<clipPath id="c0_1"><path d="M0,825L0,0L1466.7,0l0,825Z" /></clipPath>

<style type="text/css"><![CDATA[

.g1_1{
fill: #FFFFFF;
}
.g2_1{
fill: none;
stroke: #FF0000;
stroke-width: 0.15277778;
stroke-linecap: butt;
stroke-linejoin: round;
}
.g3_1{
fill: none;
stroke: #00B0F0;
stroke-width: 9.166056;
stroke-linecap: butt;
stroke-linejoin: miter;
stroke-miterlimit: 7;
}
.g4_1{
fill: none;
stroke: #3A99D1;
stroke-width: 2.2916667;
stroke-linecap: butt;
stroke-linejoin: miter;
}
.g5_1{
fill: none;
stroke: #3A99D1;
stroke-width: 1.6805556;
stroke-linecap: butt;
stroke-linejoin: miter;
}
.g6_1{
fill: none;
stroke: #3A99D1;
stroke-width: 1.5277778;
stroke-linecap: butt;
stroke-linejoin: miter;
}
.g7_1{
fill: none;
stroke: #008D41;
stroke-width: 0.15277778;
stroke-linecap: butt;
stroke-linejoin: round;
}
.g8_1{
fill: none;
stroke: #FF0000;
stroke-width: 1.513264;
stroke-linecap: butt;
stroke-linejoin: miter;
stroke-miterlimit: 7;
}
.g9_1{
fill: #FFAB36;
}
.g10_1{
fill: none;
stroke: #325490;
stroke-width: 1.513264;
stroke-linecap: butt;
stroke-linejoin: miter;
stroke-miterlimit: 7;
}
.g11_1{
fill: none;
stroke: #008D41;
stroke-width: 1.513264;
stroke-linecap: butt;
stroke-linejoin: miter;
stroke-miterlimit: 7;
}
.g12_1{
fill: none;
stroke: #FF0000;
stroke-width: 1.2222222;
stroke-linecap: butt;
stroke-linejoin: miter;
}
.g13_1{
fill: #CC882B;
}
.g14_1{
fill: none;
stroke: #000000;
stroke-width: 1.986111;
stroke-linecap: butt;
stroke-linejoin: miter;
}

.s1_1{
font-size: 21.39px;
font-family: LiberationSans_j;
fill: #FF0000;
}
.s2_1{
font-size: 16.81px;
font-family: LiberationSans-Italic_t;
fill: #FF0000;
}
.s3_1{
font-size: 42.78px;
font-family: LiberationSans-Bold_o;
fill: #3A99D1;
}
.s4_1{
font-size: 27.50px;
font-family: LiberationSans-Bold_o;
fill: #3A99D1;
}
.s5_1{
font-size: 30.56px;
font-family: LiberationSans-Bold_o;
fill: #3A99D1;
}
.s6_1{
font-size: 27.50px;
font-family: Carlito-Bold_9;
fill: #000000;
}
.s7_1{
font-size: 21.39px;
font-family: LiberationSans-Bold_o;
fill: #008D41;
}
.s8_1{
font-size: 16.81px;
font-family: Carlito-Italic_e;
fill: #008D41;
}
.s9_1{
font-size: 21.39px;
font-family: Carlito-Bold_9;
fill: #FFAB36;
}
.s10_1{
font-size: 36.67px;
font-family: LiberationSans_j;
fill: #000000;
}

]]></style>

</defs>
<path d="M0,0
L0,824
L1466,824
L1466,0 Z " 
fill="#FFFFFF" stroke="none" />
<g clip-path="url(#c0_1)">
<path fill-rule="evenodd" d="M0,0.1l1466.7,0l0,825L0,825.1L0,0.1Z" class="g1_1" />
<path fill-rule="evenodd" d="M0,0.1l1466.7,0l0,825L0,825.1L0,0.1Z" class="g1_1" />
</g>
<path d="M220,551.5l-64.5,0l0,-122.5l129.1,0l0,122.5l-64.6,0Z" class="g2_1" />
<text 
x="166" 
y="455" 
dx="0,0,0,0.1,-0.2,0,0.1" 
class="s1_1"
>SCANNER</text>

<text 
x="178" 
y="481" 
dx="0,0,-0.1" 
class="s2_1"
>MRI</text>

<text 
x="175" 
y="502" 
dx="0,0.1,0,0.1" 
class="s2_1"
>fMRI</text>

<text 
x="175" 
y="522" 
dx="0,0,0" 
class="s2_1"
>PET</text>

<text 
x="175" 
y="542" 
dx="0,0" 
class="s2_1"
>……</text>

<path d="M685.5,576.1l-346.3,0l0,-284.3l692.7,0l0,284.3l-346.4,0Z" class="g3_1" />
<text 
x="507" 
y="347" 
dx="0,-0.2,0,0,0,-0.1,0,0,-0.1,0,-3.2,0,-0.1,0" 
class="s3_1"
>ReproNim Tools</text>

<path d="M507.5,350.9l326.7,0" class="g4_1" />
<path d="M370.9,461l8.6,0" class="g5_1" />
<text 
x="379" 
y="458" 
dx="0,-0.1,0,0,0,0,0.1" 
class="s4_1"
>ReproIN</text>

<path d="M379.5,460.7l106.8,0" class="g6_1" />
<text 
x="584" 
y="394" 
dx="0,0,0,-0.2,0.1,0,-1.3,-0.2,0,-0.2" 
class="s4_1"
>BrainVerse</text>

<path d="M584.8,396.6l143.5,0" class="g6_1" />
<text 
x="591" 
y="518" 
dx="0,0,0,0,0,0" 
class="s4_1"
>NICEMA</text>

<path d="M591.4,520.5l108.3,0" class="g6_1" />
<text 
x="699" 
y="518" 
dx="0" 
class="s5_1"
>N</text>

<path d="M699.7,520.8l22.2,0" class="g5_1" />
<path d="M828.1,461l8.4,0" class="g5_1" />
<text 
x="836" 
y="458" 
dx="0,0,-0.2,0.2,-0.2,0.2,-0.1,0.2,-0.1,0" 
class="s4_1"
>NeuroBLAST</text>

<path d="M836.5,460.7l171.1,0" class="g6_1" />
<text 
x="132" 
y="275" 
dx="0,0,0.1,-0.1,-0.1,0,-0.3" 
class="s6_1"
>Acquire</text>

<text 
x="565" 
y="275" 
dx="0,0.2,-0.4,0,0,0.2,0,0,-1.3,0.1,-0.2,0,0.1,-0.2,-0.5,0.1,0,0.1,-0.1,-0.2" 
class="s6_1"
>Process/Analyze Data</text>

<text 
x="1144" 
y="275" 
dx="0,0,-0.1,0,-0.1" 
class="s6_1"
>Share</text>

<path d="M1155,529l-60.5,0l0,-162.8l120.8,0l0,162.8l-60.3,0Z" class="g7_1" />
<text 
x="1105" 
y="393" 
dx="0,0,0,-0.1,0.1,0,0,0.1" 
class="s7_1"
>OUTSIDE </text>

<text 
x="1111" 
y="418" 
dx="0,0,0,0,-0.1" 
class="s7_1"
>WORLD</text>

<text 
x="1105" 
y="439" 
dx="0,-0.1,0.1,0,0,0.1,-0.1,0.1,0,-0.1,-0.1,0.1,0" 
class="s8_1"
>Collaborators</text>

<text 
x="1105" 
y="459" 
dx="0,-0.4,0.1,0.1,-0.1,0,0.1,-0.1,-0.1,0,0,0.1" 
class="s8_1"
>Repositories</text>

<text 
x="1105" 
y="479" 
dx="0,0,-0.1,0.1,0,-0.1,0.1,0" 
class="s8_1"
>Journals</text>

<text 
x="1105" 
y="500" 
dx="0,0,0.1,-0.1,-0.1,0,0,0.1,0,0.1" 
class="s8_1"
>Data Bases</text>

<text 
x="1105" 
y="520" 
dx="0,-0.1,0.1,-0.1,0,0,0.1" 
class="s8_1"
>Indices</text>

<path d="M289.2,439.3l65.2,0l0,-5.8L365.9,445l-11.5,11.6l0,-5.8l-65.2,0l0,-11.5Z" class="g8_1" />
<path fill-rule="evenodd" d="M494.7,437.5l14.4,0l0,-7.6l16.1,15.3l-16.1,15.1l0,-7.7l-14.4,0l0,-15.1Z" class="g9_1" />
<path d="M494.7,437.5l14.4,0l0,-7.6l16.1,15.3l-16.1,15.1l0,-7.7l-14.4,0l0,-15.1Z" class="g10_1" />
<path fill-rule="evenodd" d="M790,437.5l14.4,0l0,-7.6l16,15.3l-16,15.1l0,-7.7l-14.4,0l0,-15.1Z" class="g9_1" />
<path d="M790,437.5l14.4,0l0,-7.6l16,15.3l-16,15.1l0,-7.7l-14.4,0l0,-15.1Z" class="g10_1" />
<path d="M1013.2,439.3l65.3,0l0,-5.8l11.4,11.5l-11.4,11.6l0,-5.8l-65.3,0l0,-11.5Z" class="g11_1" />
<text 
x="461" 
y="566" 
dx="0,0,-0.3,-0.2,0.1,-0.3,-0.1,-0.4,0,-0.4,0.1,0.8,-1.1,0,-0.1,-0.2,0.1,-0.2,0.1,0.1,0,0,0,0,0,0,-0.1,0.2,0,0.1,0.1,-0.1,0,0.1,0,0,0.1,-0.2,-0.1,0.2,-0.1,-0.3,0.1,0,0.1,0,-0.3,0,0.1" 
class="s9_1"
>InvesTgator’s Locally Accessed Computer Resources</text>

<path d="M220,421.2l-64.5,0l0,-122.6l129.1,0l0,122.6l-64.6,0Z" class="g2_1" />
<text 
x="166" 
y="325" 
dx="0,0,0,0,0,0,0.1" 
class="s1_1"
>Subject</text>

<path d="M166.4,327.4l71.6,0" class="g12_1" />
<text 
x="178" 
y="351" 
dx="0,0,0,0,0,0.1,-0.2,0.1" 
class="s2_1"
>Behavior</text>

<text 
x="175" 
y="372" 
dx="0,-0.1,-0.1,-0.1,0,-0.1,0,0.1" 
class="s2_1"
>Clinical</text>

<text 
x="175" 
y="392" 
dx="0,0,-0.1,0,0.1,0,0,0,-0.1" 
class="s2_1"
>Biosample</text>

<text 
x="175" 
y="412" 
dx="0,0" 
class="s2_1"
>……</text>

<path fill-rule="evenodd" d="M742,496.6l10.4,-12l0,5.2l2.2,-1l2,-0.9l1.9,-1l2,-1.3l2,-1.3l1.8,-1.6l1.9,-1.5l1.8,-1.8l1.5,-1.9l1.7,-1.9l1.5,-2l1.4,-2.3l1.4,-2.3l1.2,-2.3l1.2,-2.5l1,-2.5l0.9,-2.6l0.9,-2.6l0.8,-2.8l0.6,-2.7l0.4,-2.9l0.3,-2.8l0.3,-2.9l0.2,2.9l0,2.8l-0.2,2.9l-0.1,2.7l-0.3,2.9l-0.3,2.8l-0.6,2.7l-0.6,2.8l-0.8,2.6l-0.8,2.6l-1,2.6l-1,2.4l-1.2,2.4l-1.2,2.3l-1.4,2.3l-1.4,2.2l-1.5,1.9l-1.5,2l-1.7,1.9l-1.7,1.6l-1.8,1.6l-1.8,1.5l-2,1.4l-1.9,1l-1.9,1.1l-2.2,0.9l-2,0.8l0,5.3L742,496.6Z" class="g9_1" />
<path fill-rule="evenodd" d="M783.4,447.6l0,-2.8l-0.3,-2.9L782.8,439l-0.3,-2.7l-0.4,-2.8l-0.6,-2.7l-0.8,-2.6l-0.8,-2.6l-1,-2.6l-1,-2.4l-1.2,-2.5l-1.2,-2.3l-1.2,-2.3l-1.6,-2.1l-1.3,-2.2l-1.6,-1.9l-1.6,-1.9l-1.9,-1.7l-1.6,-1.6l-1.9,-1.4l-2,-1.4L759,398.1L757,397l-2.1,-0.9l-2,-0.9l-2.2,-0.6l-2.1,-0.5l-2.1,-0.4l-2.2,-0.2l-2.1,-0.1L742,383.1l2.3,0l2.2,0.3l2.1,0.3l2.1,0.5l2,0.8l2.2,0.7l2,0.9l1.9,1.1l2,1.2l2,1.4l1.9,1.5l1.6,1.6l1.9,1.8l1.5,1.8l1.7,2l1.3,2l1.4,2.1l1.4,2.3l1.2,2.3l1.1,2.5l1.1,2.6l0.9,2.4l0.9,2.6l0.6,2.8l0.8,2.7l0.4,2.8l0.3,2.7l0.3,2.8l0.2,2.9l0.1,2.9l0,10.2Z" class="g13_1" />
<path d="M783.4,447.6l0,-2.8l-0.3,-2.9L782.8,439l-0.3,-2.7l-0.4,-2.8l-0.6,-2.7l-0.8,-2.6l-0.8,-2.6l-1,-2.6l-1,-2.4l-1.2,-2.5l-1.2,-2.3l-1.2,-2.3l-1.6,-2.1l-1.3,-2.2l-1.6,-1.9l-1.6,-1.9l-1.9,-1.7l-1.6,-1.6l-1.9,-1.4l-2,-1.4L759,398.1L757,397l-2.1,-0.9l-2,-0.9l-2.2,-0.6l-2.1,-0.5l-2.1,-0.4l-2.2,-0.2l-2.1,-0.1L742,383.1l2.3,0l2.2,0.3l2.1,0.3l2.1,0.5l2,0.8l2.2,0.7l2,0.9l1.9,1.1l2,1.2l2,1.4l1.9,1.5l1.6,1.6l1.9,1.8l1.5,1.8l1.7,2l1.3,2l1.4,2.1l1.4,2.3l1.2,2.3l1.1,2.5l1.1,2.6l0.9,2.4l0.9,2.6l0.6,2.8l0.8,2.7l0.4,2.8l0.3,2.7l0.3,2.8l0.2,2.9l0.1,2.9l0,10.2l0,2.9l-0.3,2.7l-0.3,3l-0.3,2.7l-0.4,2.8l-0.6,2.7l-0.8,2.8l-0.9,2.5l-0.9,2.6l-1.1,2.6l-1.1,2.3l-1.4,2.5l-1.2,2.3l-1.4,2.1l-1.5,2l-1.7,2l-1.6,1.8l-1.7,1.7l-1.9,1.7l-1.8,1.5l-2,1.4l-2,1l-1.9,1.1l-2,0.9l-2.2,1l0,5.1L742,496.6l10.4,-12l0,5.2l2.2,-1l2,-0.9l1.9,-1l2,-1.3l2,-1.3l1.8,-1.6l1.9,-1.5l1.8,-1.8l1.5,-1.9l1.7,-1.9l1.5,-2l1.4,-2.3l1.4,-2.3l1.2,-2.3l1.2,-2.5l1,-2.5l0.9,-2.6l0.9,-2.6l0.8,-2.8l0.6,-2.7l0.4,-2.9l0.3,-2.8l0.3,-2.9" class="g10_1" />
<path fill-rule="evenodd" d="M573.5,393.5l-10.2,12.1l0,-5.2l-2.1,0.8l-2,1l-2.2,1.1l-2,1.2l-1.8,1.4l-2,1.4l-1.8,1.6l-1.7,1.9l-1.7,1.8l-1.5,1.8l-1.5,2.2l-1.6,2.3l-1.2,2.3l-1.2,2.3l-1.2,2.4l-1.1,2.6l-0.9,2.6l-0.8,2.6l-0.7,2.7l-0.6,2.8l-0.5,2.7l-0.5,2.9l-0.3,2.9l0.2,0l-0.2,-2.9l0,-2.9l0,-2.7l0.2,-2.8l0.3,-2.9l0.4,-2.7L534,428l0.6,-2.7l0.6,-2.6l0.9,-2.6l0.9,-2.6l1.1,-2.4l1.1,-2.5l1.3,-2.3l1.3,-2.3l1.5,-2.1l1.4,-2l1.6,-2l1.7,-1.8l1.7,-1.7l1.8,-1.5l1.9,-1.6l1.8,-1.3l2,-1.1l2,-1.1l2,-0.9l2.1,-0.7l0,-5.4l10.2,8.7Z" class="g9_1" />
<path fill-rule="evenodd" d="M532.3,442.6l0,2.7l0.1,2.9l0.3,2.8l0.5,2.9l0.5,2.7l0.6,2.8L535,462l0.8,2.6l0.9,2.6l1.1,2.4l1,2.4l1.3,2.3l1.3,2.3l1.4,2.2l1.5,2.1l1.6,1.8l1.7,2l1.6,1.7l1.9,1.7l1.8,1.4l1.8,1.3l2,1.3l2,1l2,0.9l2.1,1l2.2,0.6l2.1,0.4l2.2,0.5l2.1,0.1l2.1,0.2l0,10.2l-2.1,0l-2.1,-0.3l-2.2,-0.3L565,506l-2.2,-0.8l-2,-0.8l-2.1,-0.9l-2,-1.1l-2,-1.2l-1.8,-1.4l-1.8,-1.5l-1.9,-1.7L547.6,495l-1.7,-1.9l-1.6,-2L543,489.2L541.4,487l-1.2,-2.3L539,482.4L537.8,480l-0.9,-2.6l-1.1,-2.5L535,472.3l-0.7,-2.7l-0.6,-2.8l-0.5,-2.7l-0.5,-2.8l-0.3,-2.9l-0.1,-2.7l0,-2.9l0,-10.2Z" class="g13_1" />
<path d="M532.3,442.6l0,2.7l0.1,2.9l0.3,2.8l0.5,2.9l0.5,2.7l0.6,2.8L535,462l0.8,2.6l0.9,2.6l1.1,2.4l1,2.4l1.3,2.3l1.3,2.3l1.4,2.2l1.5,2.1l1.6,1.8l1.7,2l1.6,1.7l1.9,1.7l1.8,1.4l1.8,1.3l2,1.3l2,1l2,0.9l2.1,1l2.2,0.6l2.1,0.4l2.2,0.5l2.1,0.1l2.1,0.2l0,10.2l-2.1,0l-2.1,-0.3l-2.2,-0.3L565,506l-2.2,-0.8l-2,-0.8l-2.1,-0.9l-2,-1.1l-2,-1.2l-1.8,-1.4l-1.8,-1.5l-1.9,-1.7L547.6,495l-1.7,-1.9l-1.6,-2L543,489.2L541.4,487l-1.2,-2.3L539,482.4L537.8,480l-0.9,-2.6l-1.1,-2.5L535,472.3l-0.7,-2.7l-0.6,-2.8l-0.5,-2.7l-0.5,-2.8l-0.3,-2.9l-0.1,-2.7l0,-2.9l0,-10.2l0,-2.9l0.1,-3l0.3,-2.7l0.5,-2.8l0.5,-2.9l0.6,-2.6L535,423l0.9,-2.6l1,-2.6l0.9,-2.6l1.2,-2.4l1.2,-2.3l1.4,-2.3L543,406l1.5,-1.9l1.5,-2l1.7,-1.9l1.8,-1.6l1.9,-1.7l1.8,-1.6L555,394l2,-1.3l2,-0.9l2.2,-1l1.9,-0.8l0.2,-5.2l10.2,8.7l-10.2,12.1l0,-5.2l-2.1,0.8l-2,1l-2.2,1.1l-2,1.2l-1.8,1.4l-2,1.4l-1.8,1.6l-1.7,1.9l-1.7,1.8l-1.5,1.8l-1.5,2.2l-1.6,2.3l-1.2,2.3l-1.2,2.3l-1.2,2.4l-1.1,2.6l-0.9,2.6l-0.8,2.6l-0.7,2.7l-0.6,2.8l-0.5,2.7l-0.5,2.9l-0.3,2.9" class="g10_1" />
<path d="M290,374l247.6,0l0,-7.1l13.9,13.9l-13.9,13.9l0,-7l-247.6,0L290,374Z" class="g8_1" />
<text 
x="306" 
y="217" 
dx="0,0,-0.1,0,-0.1,-1.9,0,0,-0.1,-0.1,0,0,0,0,0,-0.1,-0.1,0,0,-0.1,-0.1,0.1,-0.2,-0.1,0,0,-0.1,0.1,-0.2,0,0,-0.1,0.1,-0.1,-0.1,0,0,0,0,-0.1,0,0,0.1,0,-0.1" 
class="s10_1"
>Data Acquisition/Lab-Centered Experiment Flow</text>

<path d="M306.2,220.9l779.9,0" class="g14_1" />


<!-- Any embedded fonts defined here -->
<style type="text/css" ><![CDATA[

@font-face {
	font-family: Carlito-Bold_9;
	src: url("fonts/Carlito-Bold_9.woff") format("woff");
}

@font-face {
	font-family: Carlito-Italic_e;
	src: url("fonts/Carlito-Italic_e.woff") format("woff");
}

@font-face {
	font-family: LiberationSans_j;
	src: url("fonts/LiberationSans_j.woff") format("woff");
}

@font-face {
	font-family: LiberationSans-Italic_t;
	src: url("fonts/LiberationSans-Italic_t.woff") format("woff");
}

@font-face {
	font-family: LiberationSans-Bold_o;
	src: url("fonts/LiberationSans-Bold_o.woff") format("woff");
}

]]></style>

</svg>
