<?xml version="1.0" encoding="UTF-8" standalone="no"?>
<!-- Page 1 -->

<svg
   xmlns:dc="http://purl.org/dc/elements/1.1/"
   xmlns:cc="http://creativecommons.org/ns#"
   xmlns:rdf="http://www.w3.org/1999/02/22-rdf-syntax-ns#"
   xmlns:svg="http://www.w3.org/2000/svg"
   xmlns="http://www.w3.org/2000/svg"
   xmlns:sodipodi="http://sodipodi.sourceforge.net/DTD/sodipodi-0.dtd"
   xmlns:inkscape="http://www.inkscape.org/namespaces/inkscape"
   x="0"
   y="0"
   width="1090.1509"
   height="391.54364"
   viewBox="0 0 1090.1509 391.54364"
   version="1.1"
   style="display:block"
   id="svg308"
   sodipodi:docname="flow.svg"
   inkscape:version="0.92.2 5c3e80d, 2017-08-06">
  <metadata
     id="metadata312">
    <rdf:RDF>
      <cc:Work
         rdf:about="">
        <dc:format>image/svg+xml</dc:format>
        <dc:type
           rdf:resource="http://purl.org/dc/dcmitype/StillImage" />
        <dc:title></dc:title>
      </cc:Work>
    </rdf:RDF>
  </metadata>
  <sodipodi:namedview
     pagecolor="#ffffff"
     bordercolor="#666666"
     borderopacity="1"
     objecttolerance="10"
     gridtolerance="10"
     guidetolerance="10"
     inkscape:pageopacity="0"
     inkscape:pageshadow="2"
     inkscape:window-width="1642"
     inkscape:window-height="1071"
     id="namedview310"
     showgrid="false"
     fit-margin-top="0"
     fit-margin-left="0"
     fit-margin-right="0"
     fit-margin-bottom="0"
     inkscape:zoom="0.66848568"
     inkscape:cx="600.78516"
     inkscape:cy="168.68303"
     inkscape:window-x="0"
     inkscape:window-y="0"
     inkscape:window-maximized="0"
     inkscape:current-layer="svg308" />
  <defs
     id="defs186">
    <clipPath
       id="c0_1">
      <path
         d="M 0,825 V 0 h 1466.7 v 825 z"
         id="path181"
         inkscape:connector-curvature="0" />
    </clipPath>
    <style
       type="text/css"
       id="style184"><![CDATA[

.g1_1{
fill: #FFFFFF;
}
.g2_1{
fill: none;
stroke: #FF0000;
stroke-width: 0.15277778;
stroke-linecap: butt;
stroke-linejoin: round;
}
.g3_1{
fill: none;
stroke: #00B0F0;
stroke-width: 9.166056;
stroke-linecap: butt;
stroke-linejoin: miter;
stroke-miterlimit: 7;
}
.g4_1{
fill: none;
stroke: #3A99D1;
stroke-width: 2.2916667;
stroke-linecap: butt;
stroke-linejoin: miter;
}
.g5_1{
fill: none;
stroke: #3A99D1;
stroke-width: 1.6805556;
stroke-linecap: butt;
stroke-linejoin: miter;
}
.g6_1{
fill: none;
stroke: #3A99D1;
stroke-width: 1.5277778;
stroke-linecap: butt;
stroke-linejoin: miter;
}
.g7_1{
fill: none;
stroke: #008D41;
stroke-width: 0.15277778;
stroke-linecap: butt;
stroke-linejoin: round;
}
.g8_1{
fill: none;
stroke: #FF0000;
stroke-width: 1.513264;
stroke-linecap: butt;
stroke-linejoin: miter;
stroke-miterlimit: 7;
}
.g9_1{
fill: #FFAB36;
}
.g10_1{
fill: none;
stroke: #325490;
stroke-width: 1.513264;
stroke-linecap: butt;
stroke-linejoin: miter;
stroke-miterlimit: 7;
}
.g11_1{
fill: none;
stroke: #008D41;
stroke-width: 1.513264;
stroke-linecap: butt;
stroke-linejoin: miter;
stroke-miterlimit: 7;
}
.g12_1{
fill: none;
stroke: #FF0000;
stroke-width: 1.2222222;
stroke-linecap: butt;
stroke-linejoin: miter;
}
.g13_1{
fill: #CC882B;
}
.g14_1{
fill: none;
stroke: #000000;
stroke-width: 1.986111;
stroke-linecap: butt;
stroke-linejoin: miter;
}

.s1_1{
font-size: 21.39px;
font-family: LiberationSans_j;
fill: #FF0000;
}
.s2_1{
font-size: 16.81px;
font-family: LiberationSans-Italic_t;
fill: #FF0000;
}
.s3_1{
font-size: 42.78px;
font-family: LiberationSans-Bold_o;
fill: #3A99D1;
}
.s4_1{
font-size: 27.50px;
font-family: LiberationSans-Bold_o;
fill: #3A99D1;
}
.s5_1{
font-size: 30.56px;
font-family: LiberationSans-Bold_o;
fill: #3A99D1;
}
.s6_1{
font-size: 27.50px;
font-family: Carlito-Bold_9;
fill: #000000;
}
.s7_1{
font-size: 21.39px;
font-family: LiberationSans-Bold_o;
fill: #008D41;
}
.s8_1{
font-size: 16.81px;
font-family: Carlito-Italic_e;
fill: #008D41;
}
.s9_1{
font-size: 21.39px;
font-family: Carlito-Bold_9;
fill: #FFAB36;
}
.s10_1{
font-size: 36.67px;
font-family: LiberationSans_j;
fill: #000000;
}

]]></style>
  </defs>
  <path
     d="m 87.785156,362.3606 h -64.5 v -122.5 H 152.38516 v 122.5 z"
     class="g2_1"
     id="path196"
     inkscape:connector-curvature="0"
     style="fill:none;stroke:#ff0000;stroke-width:0.15277778;stroke-linecap:butt;stroke-linejoin:round" />
  <text
     x="33.785156"
     y="265.8606"
     dx="0 0 0 0.1 -0.2 0 0.1"
     class="s1_1"
     id="text198"
     style="font-size:21.38999939px;font-family:LiberationSans_j;fill:#ff0000">SCANNER</text>
  <text
     x="45.785156"
     y="291.8606"
     dx="0 0 -0.1"
     class="s2_1"
     id="text200"
     style="font-size:16.80999947px;font-family:LiberationSans-Italic_t;fill:#ff0000">MRI</text>
  <text
     x="42.785156"
     y="312.8606"
     dx="0 0.1 0 0.1"
     class="s2_1"
     id="text202"
     style="font-size:16.80999947px;font-family:LiberationSans-Italic_t;fill:#ff0000">fMRI</text>
  <text
     x="42.785156"
     y="332.8606"
     dx="0 0 0"
     class="s2_1"
     id="text204"
     style="font-size:16.80999947px;font-family:LiberationSans-Italic_t;fill:#ff0000">PET</text>
  <text
     x="42.785156"
     y="352.8606"
     dx="0 0"
     class="s2_1"
     id="text206"
     style="font-size:16.80999947px;font-family:LiberationSans-Italic_t;fill:#ff0000">……</text>
  <path
     d="m 553.28516,386.9606 h -346.3 v -284.3 h 692.7 v 284.3 z"
     class="g3_1"
     id="path208"
     inkscape:connector-curvature="0"
     style="fill:none;stroke:#00b0f0;stroke-width:9.16605568;stroke-linecap:butt;stroke-linejoin:miter;stroke-miterlimit:7" />
  <text
     x="374.78516"
     y="157.86061"
     dx="0 -0.2 0 0 0 -0.1 0 0 -0.1 0 -3.2 0 -0.1 0"
     class="s3_1"
     id="text210"
     style="font-size:42.77999878px;font-family:LiberationSans-Bold_o;fill:#3a99d1">ReproNim Tools</text>
  <path
     d="m 375.28516,161.7606 h 326.7"
     class="g4_1"
     id="path212"
     inkscape:connector-curvature="0"
     style="fill:none;stroke:#3a99d1;stroke-width:2.29166675;stroke-linecap:butt;stroke-linejoin:miter" />
  <path
     d="m 238.68516,271.8606 h 8.6"
     class="g5_1"
     id="path214"
     inkscape:connector-curvature="0"
     style="fill:none;stroke:#3a99d1;stroke-width:1.68055558;stroke-linecap:butt;stroke-linejoin:miter" />
  <text
     x="246.78516"
     y="268.8606"
     dx="0 -0.1 0 0 0 0 0.1"
     class="s4_1"
     id="text216"
     style="font-size:27.5px;font-family:LiberationSans-Bold_o;fill:#3a99d1">ReproIN</text>
  <path
     d="m 247.28516,271.5606 h 106.8"
     class="g6_1"
     id="path218"
     inkscape:connector-curvature="0"
     style="fill:none;stroke:#3a99d1;stroke-width:1.52777779;stroke-linecap:butt;stroke-linejoin:miter" />
  <text
     x="451.78516"
     y="204.86061"
     dx="0 0 0 -0.2 0.1 0 -1.3 -0.2 0 -0.2"
     class="s4_1"
     id="text220"
     style="font-size:27.5px;font-family:LiberationSans-Bold_o;fill:#3a99d1">BrainVerse</text>
  <path
     d="m 452.58516,207.4606 h 143.5"
     class="g6_1"
     id="path222"
     inkscape:connector-curvature="0"
     style="fill:none;stroke:#3a99d1;stroke-width:1.52777779;stroke-linecap:butt;stroke-linejoin:miter" />
  <text
     x="458.78516"
     y="328.8606"
     dx="0 0 0 0 0 0"
     class="s4_1"
     id="text224"
     style="font-size:27.5px;font-family:LiberationSans-Bold_o;fill:#3a99d1">NICEMA</text>
  <path
     d="m 459.18516,331.3606 h 108.3"
     class="g6_1"
     id="path226"
     inkscape:connector-curvature="0"
     style="fill:none;stroke:#3a99d1;stroke-width:1.52777779;stroke-linecap:butt;stroke-linejoin:miter" />
  <text
     x="566.78516"
     y="328.8606"
     dx="0"
     class="s5_1"
     id="text228"
     style="font-size:30.55999947px;font-family:LiberationSans-Bold_o;fill:#3a99d1">N</text>
  <path
     d="m 567.48516,331.6606 h 22.2"
     class="g5_1"
     id="path230"
     inkscape:connector-curvature="0"
     style="fill:none;stroke:#3a99d1;stroke-width:1.68055558;stroke-linecap:butt;stroke-linejoin:miter" />
  <path
     d="m 695.88516,271.8606 h 8.4"
     class="g5_1"
     id="path232"
     inkscape:connector-curvature="0"
     style="fill:none;stroke:#3a99d1;stroke-width:1.68055558;stroke-linecap:butt;stroke-linejoin:miter" />
  <text
     x="703.78516"
     y="268.8606"
     dx="0 0 -0.2 0.2 -0.2 0.2 -0.1 0.2 -0.1 0"
     class="s4_1"
     id="text234"
     style="font-size:27.5px;font-family:LiberationSans-Bold_o;fill:#3a99d1">NeuroBLAST</text>
  <path
     d="m 704.28516,271.5606 h 171.1"
     class="g6_1"
     id="path236"
     inkscape:connector-curvature="0"
     style="fill:none;stroke:#3a99d1;stroke-width:1.52777779;stroke-linecap:butt;stroke-linejoin:miter" />
  <text
     x="-0.21484375"
     y="85.860603"
     dx="0 0 0.1 -0.1 -0.1 0 -0.30000001"
     class="s6_1"
     id="text238"
     style="font-size:27.5px;font-family:Carlito-Bold_9;fill:#000000">Acquire</text>
  <text
     x="432.78516"
     y="85.860603"
     dx="0 0.2 -0.40000001 0 0 0.2 0 0 -1.3 0.1 -0.2 0 0.1 -0.2 -0.5 0.1 0 0.1 -0.1 -0.2"
     class="s6_1"
     id="text240"
     style="font-size:27.5px;font-family:Carlito-Bold_9;fill:#000000">Process/Analyze Data</text>
  <text
     x="1011.7852"
     y="85.860603"
     dx="0 0 -0.1 0 -0.1"
     class="s6_1"
     id="text242"
     style="font-size:27.5px;font-family:Carlito-Bold_9;fill:#000000">Share</text>
  <path
     d="m 1022.7852,339.8606 h -60.50004 v -162.8 h 120.80004 v 162.8 z"
     class="g7_1"
     id="path244"
     inkscape:connector-curvature="0"
     style="fill:none;stroke:#008d41;stroke-width:0.15277778;stroke-linecap:butt;stroke-linejoin:round" />
  <text
     x="972.78516"
     y="203.86061"
     dx="0 0 0 -0.1 0.1 0 0 0.1"
     class="s7_1"
     id="text246"
     style="font-size:21.38999939px;font-family:LiberationSans-Bold_o;fill:#008d41">OUTSIDE</text>
  <text
     x="978.78516"
     y="228.86061"
     dx="0 0 0 0 -0.1"
     class="s7_1"
     id="text248"
     style="font-size:21.38999939px;font-family:LiberationSans-Bold_o;fill:#008d41">WORLD</text>
  <text
     x="972.78516"
     y="249.86061"
     dx="0 -0.1 0.1 0 0 0.1 -0.1 0.1 0 -0.1 -0.1 0.1 0"
     class="s8_1"
     id="text250"
     style="font-size:16.80999947px;font-family:Carlito-Italic_e;fill:#008d41">Collaborators</text>
  <text
     x="972.78516"
     y="269.8606"
     dx="0 -0.40000001 0.1 0.1 -0.1 0 0.1 -0.1 -0.1 0 0 0.1"
     class="s8_1"
     id="text252"
     style="font-size:16.80999947px;font-family:Carlito-Italic_e;fill:#008d41">Repositories</text>
  <text
     x="972.78516"
     y="289.8606"
     dx="0 0 -0.1 0.1 0 -0.1 0.1 0"
     class="s8_1"
     id="text254"
     style="font-size:16.80999947px;font-family:Carlito-Italic_e;fill:#008d41">Journals</text>
  <text
     x="972.78516"
     y="310.8606"
     dx="0 0 0.1 -0.1 -0.1 0 0 0.1 0 0.1"
     class="s8_1"
     id="text256"
     style="font-size:16.80999947px;font-family:Carlito-Italic_e;fill:#008d41">Data Bases</text>
  <text
     x="972.78516"
     y="330.8606"
     dx="0 -0.1 0.1 -0.1 0 0 0.1"
     class="s8_1"
     id="text258"
     style="font-size:16.80999947px;font-family:Carlito-Italic_e;fill:#008d41">Indices</text>
  <path
     d="m 156.98516,250.1606 h 65.2 v -5.8 l 11.5,11.5 -11.5,11.6 v -5.8 h -65.2 z"
     class="g8_1"
     id="path260"
     inkscape:connector-curvature="0"
     style="fill:none;stroke:#ff0000;stroke-width:1.51326394;stroke-linecap:butt;stroke-linejoin:miter;stroke-miterlimit:7" />
  <path
     d="m 362.48516,248.3606 h 14.4 v -7.6 l 16.1,15.3 -16.1,15.1 v -7.7 h -14.4 z"
     class="g9_1"
     id="path262"
     inkscape:connector-curvature="0"
     style="fill:#ffab36;fill-rule:evenodd" />
  <path
     d="m 362.48516,248.3606 h 14.4 v -7.6 l 16.1,15.3 -16.1,15.1 v -7.7 h -14.4 z"
     class="g10_1"
     id="path264"
     inkscape:connector-curvature="0"
     style="fill:none;stroke:#325490;stroke-width:1.51326394;stroke-linecap:butt;stroke-linejoin:miter;stroke-miterlimit:7" />
  <path
     d="m 657.78516,248.3606 h 14.4 v -7.6 l 16,15.3 -16,15.1 v -7.7 h -14.4 z"
     class="g9_1"
     id="path266"
     inkscape:connector-curvature="0"
     style="fill:#ffab36;fill-rule:evenodd" />
  <path
     d="m 657.78516,248.3606 h 14.4 v -7.6 l 16,15.3 -16,15.1 v -7.7 h -14.4 z"
     class="g10_1"
     id="path268"
     inkscape:connector-curvature="0"
     style="fill:none;stroke:#325490;stroke-width:1.51326394;stroke-linecap:butt;stroke-linejoin:miter;stroke-miterlimit:7" />
  <path
     d="m 880.98516,250.1606 h 65.3 v -5.8 l 11.4,11.5 -11.4,11.6 v -5.8 h -65.3 z"
     class="g11_1"
     id="path270"
     inkscape:connector-curvature="0"
     style="fill:none;stroke:#008d41;stroke-width:1.51326394;stroke-linecap:butt;stroke-linejoin:miter;stroke-miterlimit:7" />
  <text
     x="328.78516"
     y="376.8606"
     dx="0 0 -0.30000001 -0.2 0.1 -0.30000001 -0.1 -0.40000001 0 -0.40000001 0.1 0.80000001 -1.1 0 -0.1 -0.2 0.1 -0.2 0.1 0.1 0 0 0 0 0 0 -0.1 0.2 0 0.1 0.1 -0.1 0 0.1 0 0 0.1 -0.2 -0.1 0.2 -0.1 -0.30000001 0.1 0 0.1 0 -0.30000001 0 0.1"
     class="s9_1"
     id="text272"
     style="font-size:21.38999939px;font-family:Carlito-Bold_9;fill:#ffab36">Investigator’s Locally Accessed Computer Resources</text>
  <path
     d="m 87.785156,232.0606 h -64.5 v -122.6 H 152.38516 v 122.6 z"
     class="g2_1"
     id="path274"
     inkscape:connector-curvature="0"
     style="fill:none;stroke:#ff0000;stroke-width:0.15277778;stroke-linecap:butt;stroke-linejoin:round" />
  <text
     x="33.785156"
     y="135.86061"
     dx="0 0 0 0 0 0 0.1"
     class="s1_1"
     id="text276"
     style="font-size:21.38999939px;font-family:LiberationSans_j;fill:#ff0000">Subject</text>
  <path
     d="M 34.185156,138.2606 H 105.78516"
     class="g12_1"
     id="path278"
     inkscape:connector-curvature="0"
     style="fill:none;stroke:#ff0000;stroke-width:1.22222221;stroke-linecap:butt;stroke-linejoin:miter" />
  <text
     x="45.785156"
     y="161.86061"
     dx="0 0 0 0 0 0.1 -0.2 0.1"
     class="s2_1"
     id="text280"
     style="font-size:16.80999947px;font-family:LiberationSans-Italic_t;fill:#ff0000">Behavior</text>
  <text
     x="42.785156"
     y="182.86061"
     dx="0 -0.1 -0.1 -0.1 0 -0.1 0 0.1"
     class="s2_1"
     id="text282"
     style="font-size:16.80999947px;font-family:LiberationSans-Italic_t;fill:#ff0000">Clinical</text>
  <text
     x="42.785156"
     y="202.86061"
     dx="0 0 -0.1 0 0.1 0 0 0 -0.1"
     class="s2_1"
     id="text284"
     style="font-size:16.80999947px;font-family:LiberationSans-Italic_t;fill:#ff0000">Biosample</text>
  <text
     x="42.785156"
     y="222.86061"
     dx="0 0"
     class="s2_1"
     id="text286"
     style="font-size:16.80999947px;font-family:LiberationSans-Italic_t;fill:#ff0000">……</text>
  <path
     d="m 609.78516,307.4606 10.4,-12 v 5.2 l 2.2,-1 2,-0.9 1.9,-1 2,-1.3 2,-1.3 1.8,-1.6 1.9,-1.5 1.8,-1.8 1.5,-1.9 1.7,-1.9 1.5,-2 1.4,-2.3 1.4,-2.3 1.2,-2.3 1.2,-2.5 1,-2.5 0.9,-2.6 0.9,-2.6 0.8,-2.8 0.6,-2.7 0.4,-2.9 0.3,-2.8 0.3,-2.9 0.2,2.9 v 2.8 l -0.2,2.9 -0.1,2.7 -0.3,2.9 -0.3,2.8 -0.6,2.7 -0.6,2.8 -0.8,2.6 -0.8,2.6 -1,2.6 -1,2.4 -1.2,2.4 -1.2,2.3 -1.4,2.3 -1.4,2.2 -1.5,1.9 -1.5,2 -1.7,1.9 -1.7,1.6 -1.8,1.6 -1.8,1.5 -2,1.4 -1.9,1 -1.9,1.1 -2.2,0.9 -2,0.8 v 5.3 z"
     class="g9_1"
     id="path288"
     inkscape:connector-curvature="0"
     style="fill:#ffab36;fill-rule:evenodd" />
  <path
     d="m 651.18516,258.4606 v -2.8 l -0.3,-2.9 -0.3,-2.9 -0.3,-2.7 -0.4,-2.8 -0.6,-2.7 -0.8,-2.6 -0.8,-2.6 -1,-2.6 -1,-2.4 -1.2,-2.5 -1.2,-2.3 -1.2,-2.3 -1.6,-2.1 -1.3,-2.2 -1.6,-1.9 -1.6,-1.9 -1.9,-1.7 -1.6,-1.6 -1.9,-1.4 -2,-1.4 -1.8,-1.2 -2,-1.1 -2.1,-0.9 -2,-0.9 -2.2,-0.6 -2.1,-0.5 -2.1,-0.4 -2.2,-0.2 -2.1,-0.1 -0.2,-10.3 h 2.3 l 2.2,0.3 2.1,0.3 2.1,0.5 2,0.8 2.2,0.7 2,0.9 1.9,1.1 2,1.2 2,1.4 1.9,1.5 1.6,1.6 1.9,1.8 1.5,1.8 1.7,2 1.3,2 1.4,2.1 1.4,2.3 1.2,2.3 1.1,2.5 1.1,2.6 0.9,2.4 0.9,2.6 0.6,2.8 0.8,2.7 0.4,2.8 0.3,2.7 0.3,2.8 0.2,2.9 0.1,2.9 z"
     class="g13_1"
     id="path290"
     inkscape:connector-curvature="0"
     style="fill:#cc882b;fill-rule:evenodd" />
  <path
     d="m 651.18516,258.4606 v -2.8 l -0.3,-2.9 -0.3,-2.9 -0.3,-2.7 -0.4,-2.8 -0.6,-2.7 -0.8,-2.6 -0.8,-2.6 -1,-2.6 -1,-2.4 -1.2,-2.5 -1.2,-2.3 -1.2,-2.3 -1.6,-2.1 -1.3,-2.2 -1.6,-1.9 -1.6,-1.9 -1.9,-1.7 -1.6,-1.6 -1.9,-1.4 -2,-1.4 -1.8,-1.2 -2,-1.1 -2.1,-0.9 -2,-0.9 -2.2,-0.6 -2.1,-0.5 -2.1,-0.4 -2.2,-0.2 -2.1,-0.1 -0.2,-10.3 h 2.3 l 2.2,0.3 2.1,0.3 2.1,0.5 2,0.8 2.2,0.7 2,0.9 1.9,1.1 2,1.2 2,1.4 1.9,1.5 1.6,1.6 1.9,1.8 1.5,1.8 1.7,2 1.3,2 1.4,2.1 1.4,2.3 1.2,2.3 1.1,2.5 1.1,2.6 0.9,2.4 0.9,2.6 0.6,2.8 0.8,2.7 0.4,2.8 0.3,2.7 0.3,2.8 0.2,2.9 0.1,2.9 v 10.2 2.9 l -0.3,2.7 -0.3,3 -0.3,2.7 -0.4,2.8 -0.6,2.7 -0.8,2.8 -0.9,2.5 -0.9,2.6 -1.1,2.6 -1.1,2.3 -1.4,2.5 -1.2,2.3 -1.4,2.1 -1.5,2 -1.7,2 -1.6,1.8 -1.7,1.7 -1.9,1.7 -1.8,1.5 -2,1.4 -2,1 -1.9,1.1 -2,0.9 -2.2,1 v 5.1 l -10.4,-8.7 10.4,-12 v 5.2 l 2.2,-1 2,-0.9 1.9,-1 2,-1.3 2,-1.3 1.8,-1.6 1.9,-1.5 1.8,-1.8 1.5,-1.9 1.7,-1.9 1.5,-2 1.4,-2.3 1.4,-2.3 1.2,-2.3 1.2,-2.5 1,-2.5 0.9,-2.6 0.9,-2.6 0.8,-2.8 0.6,-2.7 0.4,-2.9 0.3,-2.8 0.3,-2.9"
     class="g10_1"
     id="path292"
     inkscape:connector-curvature="0"
     style="fill:none;stroke:#325490;stroke-width:1.51326394;stroke-linecap:butt;stroke-linejoin:miter;stroke-miterlimit:7" />
  <path
     d="m 441.28516,204.3606 -10.2,12.1 v -5.2 l -2.1,0.8 -2,1 -2.2,1.1 -2,1.2 -1.8,1.4 -2,1.4 -1.8,1.6 -1.7,1.9 -1.7,1.8 -1.5,1.8 -1.5,2.2 -1.6,2.3 -1.2,2.3 -1.2,2.3 -1.2,2.4 -1.1,2.6 -0.9,2.6 -0.8,2.6 -0.7,2.7 -0.6,2.8 -0.5,2.7 -0.5,2.9 -0.3,2.9 h 0.2 l -0.2,-2.9 v -2.9 -2.7 l 0.2,-2.8 0.3,-2.9 0.4,-2.7 0.7,-2.8 0.6,-2.7 0.6,-2.6 0.9,-2.6 0.9,-2.6 1.1,-2.4 1.1,-2.5 1.3,-2.3 1.3,-2.3 1.5,-2.1 1.4,-2 1.6,-2 1.7,-1.8 1.7,-1.7 1.8,-1.5 1.9,-1.6 1.8,-1.3 2,-1.1 2,-1.1 2,-0.9 2.1,-0.7 v -5.4 z"
     class="g9_1"
     id="path294"
     inkscape:connector-curvature="0"
     style="fill:#ffab36;fill-rule:evenodd" />
  <path
     d="m 400.08516,253.4606 v 2.7 l 0.1,2.9 0.3,2.8 0.5,2.9 0.5,2.7 0.6,2.8 0.7,2.6 0.8,2.6 0.9,2.6 1.1,2.4 1,2.4 1.3,2.3 1.3,2.3 1.4,2.2 1.5,2.1 1.6,1.8 1.7,2 1.6,1.7 1.9,1.7 1.8,1.4 1.8,1.3 2,1.3 2,1 2,0.9 2.1,1 2.2,0.6 2.1,0.4 2.2,0.5 2.1,0.1 2.1,0.2 v 10.2 h -2.1 l -2.1,-0.3 -2.2,-0.3 -2.1,-0.4 -2.2,-0.8 -2,-0.8 -2.1,-0.9 -2,-1.1 -2,-1.2 -1.8,-1.4 -1.8,-1.5 -1.9,-1.7 -1.6,-1.6 -1.7,-1.9 -1.6,-2 -1.3,-1.9 -1.6,-2.2 -1.2,-2.3 -1.2,-2.3 -1.2,-2.4 -0.9,-2.6 -1.1,-2.5 -0.8,-2.6 -0.7,-2.7 -0.6,-2.8 -0.5,-2.7 -0.5,-2.8 -0.3,-2.9 -0.1,-2.7 v -2.9 z"
     class="g13_1"
     id="path296"
     inkscape:connector-curvature="0"
     style="fill:#cc882b;fill-rule:evenodd" />
  <path
     d="m 400.08516,253.4606 v 2.7 l 0.1,2.9 0.3,2.8 0.5,2.9 0.5,2.7 0.6,2.8 0.7,2.6 0.8,2.6 0.9,2.6 1.1,2.4 1,2.4 1.3,2.3 1.3,2.3 1.4,2.2 1.5,2.1 1.6,1.8 1.7,2 1.6,1.7 1.9,1.7 1.8,1.4 1.8,1.3 2,1.3 2,1 2,0.9 2.1,1 2.2,0.6 2.1,0.4 2.2,0.5 2.1,0.1 2.1,0.2 v 10.2 h -2.1 l -2.1,-0.3 -2.2,-0.3 -2.1,-0.4 -2.2,-0.8 -2,-0.8 -2.1,-0.9 -2,-1.1 -2,-1.2 -1.8,-1.4 -1.8,-1.5 -1.9,-1.7 -1.6,-1.6 -1.7,-1.9 -1.6,-2 -1.3,-1.9 -1.6,-2.2 -1.2,-2.3 -1.2,-2.3 -1.2,-2.4 -0.9,-2.6 -1.1,-2.5 -0.8,-2.6 -0.7,-2.7 -0.6,-2.8 -0.5,-2.7 -0.5,-2.8 -0.3,-2.9 -0.1,-2.7 v -2.9 -10.2 -2.9 l 0.1,-3 0.3,-2.7 0.5,-2.8 0.5,-2.9 0.6,-2.6 0.7,-2.7 0.9,-2.6 1,-2.6 0.9,-2.6 1.2,-2.4 1.2,-2.3 1.4,-2.3 1.4,-2.2 1.5,-1.9 1.5,-2 1.7,-1.9 1.8,-1.6 1.9,-1.7 1.8,-1.6 1.8,-1.3 2,-1.3 2,-0.9 2.2,-1 1.9,-0.8 0.2,-5.2 10.2,8.7 -10.2,12.1 v -5.2 l -2.1,0.8 -2,1 -2.2,1.1 -2,1.2 -1.8,1.4 -2,1.4 -1.8,1.6 -1.7,1.9 -1.7,1.8 -1.5,1.8 -1.5,2.2 -1.6,2.3 -1.2,2.3 -1.2,2.3 -1.2,2.4 -1.1,2.6 -0.9,2.6 -0.8,2.6 -0.7,2.7 -0.6,2.8 -0.5,2.7 -0.5,2.9 -0.3,2.9"
     class="g10_1"
     id="path298"
     inkscape:connector-curvature="0"
     style="fill:none;stroke:#325490;stroke-width:1.51326394;stroke-linecap:butt;stroke-linejoin:miter;stroke-miterlimit:7" />
  <path
     d="m 157.78516,184.8606 h 247.6 v -7.1 l 13.9,13.9 -13.9,13.9 v -7 h -247.6 z"
     class="g8_1"
     id="path300"
     inkscape:connector-curvature="0"
     style="fill:none;stroke:#ff0000;stroke-width:1.51326394;stroke-linecap:butt;stroke-linejoin:miter;stroke-miterlimit:7" />
  <text
     x="173.78516"
     y="27.860603"
     dx="0 0 -0.1 0 -0.1 -1.9 0 0 -0.1 -0.1 0 0 0 0 0 -0.1 -0.1 0 0 -0.1 -0.1 0.1 -0.2 -0.1 0 0 -0.1 0.1 -0.2 0 0 -0.1 0.1 -0.1 -0.1 0 0 0 0 -0.1 0 0 0.1 0 -0.1"
     class="s10_1"
     id="text302"
     style="font-size:36.66999817px;font-family:LiberationSans_j;fill:#000000">Data Acquisition/Lab-Centered Experiment Flow</text>
  <path
     d="m 173.98516,31.760604 h 779.9"
     class="g14_1"
     id="path304"
     inkscape:connector-curvature="0"
     style="fill:none;stroke:#000000;stroke-width:1.98611104;stroke-linecap:butt;stroke-linejoin:miter" />
  <!-- Any embedded fonts defined here -->
  <style
     type="text/css"
     id="style306"><![CDATA[

@font-face {
	font-family: Carlito-Bold_9;
	src: url("fonts/Carlito-Bold_9.woff") format("woff");
}

@font-face {
	font-family: Carlito-Italic_e;
	src: url("fonts/Carlito-Italic_e.woff") format("woff");
}

@font-face {
	font-family: LiberationSans_j;
	src: url("fonts/LiberationSans_j.woff") format("woff");
}

@font-face {
	font-family: LiberationSans-Italic_t;
	src: url("fonts/LiberationSans-Italic_t.woff") format("woff");
}

@font-face {
	font-family: LiberationSans-Bold_o;
	src: url("fonts/LiberationSans-Bold_o.woff") format("woff");
}

]]></style>
</svg>
